<svg width="16" height="16" viewBox="0 0 16 16" fill="none" xmlns="http://www.w3.org/2000/svg">
<g id="Iconly/Light/Image">
<g id="Image">
<path id="Stroke 1" fill-rule="evenodd" clip-rule="evenodd" d="M14.1397 5.2686V10.7026C14.1397 12.7159 12.8797 14.1359 10.8663 14.1359H5.09967C3.08634 14.1359 1.83301 12.7159 1.83301 10.7026V5.2686C1.83301 3.25527 3.09301 1.83594 5.09967 1.83594H10.8663C12.8797 1.83594 14.1397 3.25527 14.1397 5.2686Z" stroke="#130F26" stroke-width="1.5" stroke-linecap="round" stroke-linejoin="round"/>
<path id="Stroke 3" d="M3.52051 10.9535L4.53917 9.87822C4.89317 9.50288 5.48317 9.48488 5.85917 9.83822C5.87051 9.84955 6.48384 10.4729 6.48384 10.4729C6.85384 10.8495 7.45851 10.8555 7.83517 10.4862C7.85984 10.4622 9.39117 8.60488 9.39117 8.60488C9.78584 8.12555 10.4945 8.05688 10.9745 8.45222C11.0065 8.47888 12.4532 9.96355 12.4532 9.96355" stroke="#130F26" stroke-width="1.5" stroke-linecap="round" stroke-linejoin="round"/>
<path id="Stroke 5" fill-rule="evenodd" clip-rule="evenodd" d="M6.8748 6.09121C6.8748 6.73721 6.35147 7.26054 5.70547 7.26054C5.05947 7.26054 4.53613 6.73721 4.53613 6.09121C4.53613 5.44521 5.05947 4.92188 5.70547 4.92188C6.35147 4.92254 6.8748 5.44521 6.8748 6.09121Z" stroke="#130F26" stroke-width="1.5" stroke-linecap="round" stroke-linejoin="round"/>
</g>
</g>
</svg>
